<svg width="834" height="834" viewBox="0 0 834 834" fill="none" xmlns="http://www.w3.org/2000/svg">
<path d="M624.028 66.5882C626.837 61.8332 625.265 55.6897 620.444 52.9952C535.157 5.3258 435.723 -10.9323 339.511 7.26285C240.021 26.0782 150.776 80.4499 88.4287 160.232C26.0817 240.014 -5.10721 339.755 0.682193 440.843C6.47159 541.931 48.8437 637.459 119.892 709.601C190.939 781.744 285.809 825.571 386.797 832.905C487.784 840.239 587.991 810.578 668.716 749.457C749.442 688.337 805.171 599.933 825.505 500.742C845.169 404.82 830.432 305.149 784.072 219.143C781.451 214.282 775.333 212.616 770.535 215.352L697.353 257.094C692.555 259.83 690.9 265.932 693.482 270.814C727.322 334.813 737.959 408.684 723.379 479.807C708.128 554.2 666.331 620.503 605.787 666.343C545.243 712.183 470.088 734.429 394.348 728.929C318.607 723.428 247.455 690.558 194.169 636.451C140.883 582.344 109.104 510.698 104.762 434.882C100.42 359.066 123.811 284.26 170.572 224.424C217.332 164.587 284.266 123.809 358.884 109.697C430.221 96.2061 503.921 107.97 567.395 142.785C572.237 145.441 578.363 143.879 581.173 139.124L624.028 66.5882Z" fill="url(#paint0_linear_175_445)" fill-opacity="0.65"/>
    <defs>
    <linearGradient id="paint0_linear_175_445" x1="417" y1="0" x2="417" y2="834" gradientUnits="userSpaceOnUse">
    <stop stop-color="#E8ACFF"/>
    <stop offset="1" stop-color="#9F21D1"/>
    </linearGradient>
    </defs>
</svg>
